<svg width="58" height="58" viewBox="0 0 58 58" fill="none" xmlns="http://www.w3.org/2000/svg">
<path d="M17.3076 37L17.3125 37.2061C17.3939 38.8121 18.423 40.1679 19.8515 40.7266C19.3844 41.5524 19.0479 42.4599 18.6289 43.3057C18.5332 43.4966 18.6045 43.6667 18.7373 43.7666C18.7599 43.7888 18.7856 43.8115 18.8173 43.8311C18.8611 43.8588 19.4215 44.2069 19.3046 44.3066C19.0777 44.4981 18.6482 44.4995 18.3671 44.5264C17.6562 44.5933 16.9321 44.5344 16.2246 44.4707C15.4375 44.3991 14.6585 44.2748 13.8896 44.0918C12.9521 43.8679 13.3194 42.7033 13.58 42.1084C13.7158 41.7984 13.4433 41.5463 13.1845 41.5488C13.0582 41.5193 12.9185 41.5486 12.8056 41.6699C12.323 42.195 11.9066 42.7928 11.3378 43.2344C11.0885 43.4278 11.1694 43.7486 11.3623 43.8916C11.3672 43.9058 11.3703 43.9184 11.3769 43.9307C11.6887 44.5881 11.1363 44.4737 10.6386 44.3857C10.1294 44.2951 9.63623 44.114 9.15914 43.9199C8.37037 43.5971 6.39678 42.1895 7.18062 41.2148C7.18911 41.2048 7.1945 41.1945 7.20113 41.1846C7.20771 41.1768 7.21291 41.1727 7.21773 41.165C7.97253 40.0273 9.08983 39.1441 9.73922 37.9395C10.3822 36.7485 9.8496 35.2744 9.59078 34.0518C9.25014 32.4359 8.92323 30.8516 9.18355 29.1973C9.43726 27.5735 10.2326 26.0826 11.3134 24.8545C12.9252 23.0229 15.0449 22.1536 17.3076 21.8896V37ZM33.2822 41.0908C33.1592 42.0942 33.026 43.3836 33.9267 44.0596C33.9588 44.0828 33.9933 44.1057 34.0253 44.1289C33.7935 44.3078 33.5387 44.3808 33.2519 44.4268C32.8264 44.4943 32.3843 44.4612 31.955 44.4658C30.9462 44.4773 29.6859 44.1368 28.8545 43.5664C28.0713 43.0291 27.7484 42.0192 27.707 41H33.2939C33.2901 41.0305 33.2858 41.0608 33.2822 41.0908ZM43.1347 41.1621C43.5351 41.698 44.0059 42.1811 44.4082 42.7168C44.5061 42.8477 44.5933 42.9835 44.6787 43.1211C44.7574 43.2463 44.7334 43.3488 44.791 43.3213C44.5145 43.5265 44.031 43.5628 43.7128 43.6152C41.003 44.0563 38.7308 42.8828 37.1074 41H43.0205C43.0585 41.0538 43.0952 41.1091 43.1347 41.1621ZM19.3076 21.8076C19.8507 21.821 20.396 21.859 20.9384 21.9229C24.1363 22.2979 27.3426 23.272 30.5781 22.8877C30.6344 22.9087 30.701 22.9158 30.7802 22.8994C30.9052 22.8716 31.0259 22.8397 31.1484 22.8047C31.1743 22.8005 31.1987 22.7971 31.2246 22.793C31.2781 22.7845 31.3233 22.7653 31.3642 22.7412C31.9998 22.5432 32.6179 22.287 33.2802 22.2002C34.1743 22.0836 34.941 22.2023 35.7509 22.5957C36.4455 22.9343 37.0418 23.4323 37.705 23.8203C38.5029 24.2876 39.3379 24.6378 40.2187 24.9189C41.5011 25.3263 42.9461 25.617 44.2793 25.3291C44.7912 25.2203 45.2965 25.0785 45.8193 25.0283C46.6251 24.9511 46.327 25.9316 46.1211 26.4229C46.1026 26.4672 46.0956 26.5106 46.0918 26.5518C45.9739 26.7037 45.9571 26.9176 46.1611 27.0596C46.8549 27.5397 48.0643 29.1336 47.5341 30.0039C47.4607 30.1277 47.4651 30.2416 47.5146 30.334C47.5216 30.391 47.5417 30.449 47.5791 30.5107C48.1298 31.3444 49.0329 32.0519 49.3711 33.0049C49.6962 33.9182 47.8455 34.8628 47.167 34.8096C46.3809 34.7491 45.5975 34.2328 44.7959 34.5254C44.1996 34.7422 43.7669 35.0523 43.0937 34.9521C42.5496 34.8701 42.0714 34.6501 41.5107 34.6348C41.2946 34.6281 41.1846 34.762 41.165 34.9219C41.1202 34.9872 41.0955 35.0714 41.1045 35.1729C41.229 36.4711 41.4806 37.7807 41.955 39H35.7539C35.568 38.648 35.3987 38.2862 35.249 37.917C35.2227 37.8525 35.1843 37.8036 35.1416 37.7646C35.0607 37.5093 34.6863 37.3352 34.4433 37.6006C34.0939 37.9822 33.8558 38.4737 33.6865 39H27.9775C27.9802 38.9919 27.9825 38.9836 27.9853 38.9756C28.1284 38.5589 27.6012 38.2478 27.3525 38.4912C27.3322 38.4949 27.3118 38.4993 27.29 38.5068C26.6862 38.7148 26.0696 38.8771 25.4453 39H21.3076C20.203 39 19.3076 38.1046 19.3076 37V21.8076ZM46.0068 29.9443C45.796 29.8942 45.5794 30.0586 45.5429 30.2627C45.5024 30.4822 45.6524 30.6724 45.8632 30.7227C45.986 30.7527 46.1089 30.7804 46.2314 30.8086C46.4423 30.8588 46.659 30.6946 46.6953 30.4902C46.7357 30.2709 46.5856 30.0816 46.375 30.0312C46.2524 30.0031 46.1295 29.9744 46.0068 29.9443Z" fill="#024152"/>
<path d="M33.8574 39L33.2578 41H27.8076V39H33.8574ZM42.2168 39L42.8701 40.4375C42.9053 40.6064 42.9622 40.7927 43.042 41H37.2305L35.8457 39H42.2168ZM47.4219 17C49.5679 17 51.3076 18.7909 51.3076 21V37L51.3027 37.2061C51.2019 39.2512 49.6088 40.8913 47.6221 40.9951L47.4219 41H43.126C43.0403 40.7813 42.9069 40.6142 42.8701 40.4375C42.7211 39.7202 42.955 39.3201 43.4072 39H47.4219C48.4949 39 49.3652 38.1046 49.3652 37V21C49.3652 19.8954 48.4949 19 47.4219 19H21.1934C20.1203 19 19.25 19.8954 19.25 21V21.4951C18.6162 21.487 17.9688 21.4811 17.3076 21.4785V21C17.3076 18.7909 19.0473 17 21.1934 17H47.4219Z" fill="#024152"/>
</svg>
