<svg preserveAspectRatio="none" overflow="visible" style="display: block;" width="114.604" height="50.935" viewBox="0 0 114.604 50.935" fill="none" xmlns="http://www.w3.org/2000/svg">
<g id="ASPINALL_LOGO_mono 1 [Vectorized]" clip-path="url(#clip0_0_573)">
<path id="Vector" d="M19.3646 9.18786C19.4695 9.17896 19.7307 9.16609 19.8189 9.19632C21.1406 9.64874 22.1657 12.4239 22.8679 13.4956C22.1592 13.6525 20.7619 13.9843 20.1823 14.3729C19.1054 15.0949 20.0797 15.5895 20.0198 16.2828C19.9921 16.6037 19.6325 17.094 19.5105 17.6725C18.7115 16.1046 17.4933 15.8278 15.8673 15.5512C16.3863 15.823 16.9613 15.9624 17.4277 16.2366C18.1664 16.6708 18.9113 17.5635 19.0904 18.4092C19.4021 19.8811 18.2362 20.5038 17.5345 21.5121C17.1026 22.1326 17.12 22.899 17.0863 23.6241C16.9581 26.3765 17.7907 28.5837 18.3714 31.1423C17.533 31.2027 15.7695 31.147 14.8537 31.1512C14.8011 31.0973 14.8181 31.1187 14.8734 31.0468C15.4073 30.3513 15.3236 30.0289 14.6998 29.4888C14.1233 29.4626 13.8414 29.4976 13.2211 29.4124C13.113 29.1851 12.968 28.8692 12.9121 28.627C12.7126 27.7627 12.7284 26.6463 12.9121 25.7838C13.0201 25.2767 13.2342 24.6765 13.3487 24.1764C13.6876 22.6972 12.6227 23.0921 11.7247 23.356C11.0208 23.5665 10.3036 23.8762 9.56322 23.9317C9.16932 23.9633 8.7752 23.9128 8.38567 23.8536C8.38567 23.8536 8.29642 23.919 8.28786 23.9252L8.25697 24.1639C8.64879 25.5998 11.4419 28.6175 12.594 29.7412C12.9437 30.0823 14.2753 29.8881 14.5353 30.3588C14.339 31.0011 11.2143 31.2227 10.6287 31.0269C9.12103 30.5225 8.3042 29.3025 7.28446 28.1972C5.41804 26.1739 1.27479 24.448 2.04714 21.1512C2.36326 19.9393 5.55921 18.5587 6.62565 18.0351C7.42318 17.6508 8.2075 17.2397 8.97727 16.8024C11.2641 15.4994 13.2141 13.952 15.2707 12.3356C16.0562 11.7183 18.5619 9.54088 19.3646 9.18786Z" fill="white"/>
<path id="Vector_2" d="M82.6463 15.4895C82.8277 15.4983 83.014 15.5266 83.1186 15.6818C83.6586 16.4829 84.0515 17.6784 84.4146 18.5868L87.1902 25.5328C87.8058 27.0508 88.4784 29.1606 89.6132 30.2999C90.081 30.4554 92.278 30.8104 92.5835 30.2286C92.9534 29.5229 92.9137 27.9784 92.9075 27.1394C92.8846 23.9168 92.9663 20.6776 92.8622 17.4575C92.8286 16.4305 91.5707 16.8859 91.0978 16.5001C91.0223 16.3306 91.0368 16.4052 91.0659 16.2002C91.3854 15.8044 96.2729 16.083 97.072 16.0054C97.1615 15.9968 97.344 16.0336 97.4329 16.0658C97.5348 16.2127 97.5118 16.2821 97.495 16.4608C97.4732 16.4961 97.4475 16.538 97.4184 16.5865C96.945 16.7135 96.4794 16.704 95.978 16.83C95.6277 17.6282 95.6859 20.9736 95.7072 22.0008C95.7558 24.3393 95.5242 27.0923 95.9551 29.3628C97.1985 29.9738 100.58 30.3815 100.911 28.4688C100.976 28.0947 101.014 27.7821 101.44 27.6884L101.542 27.7656C101.801 28.2658 101.499 30.7712 101.192 30.9806C100.624 31.3685 98.3361 31.1898 97.6053 31.1728C96.1599 31.1516 94.7139 31.1446 93.2679 31.1517C92.6848 31.1556 92.0262 31.1609 91.4375 31.172C91.3687 31.1313 91.2998 31.0905 91.231 31.0499C89.8628 31.216 88.4823 31.1394 87.1068 31.1724C86.7011 31.1821 85.7772 31.2828 85.6161 30.8392C85.6983 30.6036 85.8494 30.5408 86.0666 30.3609C86.0996 30.1853 82.6721 21.0618 82.2815 20.1303C81.7443 21.6922 81.1332 23.1999 80.5904 24.7546C81.3761 24.7144 82.9345 24.7153 83.7191 24.7766C83.906 25.2166 84.0319 25.6093 84.1791 26.0615C83.5277 26.0931 80.577 26.1198 80.0403 26.0394C79.8025 27.0459 78.633 29.3979 78.7024 30.1941C79.07 30.6463 79.8545 30.3401 80.1159 30.7317C80.1108 30.9114 80.1075 30.865 80.0073 31.0342C79.699 31.2806 75.8026 31.0863 75.1479 31.1648C75.0169 31.1804 74.7987 31.0858 74.6879 30.9925C74.4859 30.3907 75.7735 30.4235 76.2861 30.2222C77.2262 29.1362 78.4841 25.4658 79.0678 23.9987L81.4354 18.1084C81.7051 17.4363 82.1841 15.9601 82.6463 15.4895Z" fill="white"/>
<path id="Vector_3" d="M60.5877 15.5508C61.0992 15.735 65.2021 20.3199 65.9894 21.0335C67.2681 22.1918 68.8663 24.018 70.1287 25.2848C70.5702 25.7279 71.3011 26.4605 71.6984 26.9476C71.5232 23.8694 71.5495 20.7022 71.4505 17.6179C71.4085 16.3067 69.7611 16.8802 69.4427 16.3994C69.4729 16.1964 69.4371 16.2386 69.5602 16.1041C70.0493 15.9172 73.9194 16.0126 74.691 16.034C74.8354 16.038 74.949 16.0774 75.0391 16.1984C75.1191 17.0407 73.5931 16.2527 73.4835 17.3966C73.3995 18.2769 73.3844 19.1619 73.3626 20.0463L73.2132 27.0412C73.1947 28.3466 73.2037 29.7216 73.1186 31.027C73.108 31.192 73.0196 31.3285 72.9233 31.4609C72.1522 31.3153 71.4471 30.449 70.8903 29.8966L68.9116 27.9243C67.6055 26.6105 66.2648 25.2961 64.9777 23.9708C63.8837 22.8447 62.7886 21.6251 61.7159 20.4708C61.7159 22.177 61.7489 23.883 61.8138 25.588C61.8591 27.0051 61.8283 28.968 62.2508 30.2612C62.7824 30.4407 63.5905 30.4811 63.8339 30.5995C63.8983 30.6992 63.9274 30.8041 63.8949 30.923C63.882 30.969 63.8412 31.0652 63.797 31.0876C63.5944 31.1909 58.6711 31.2354 58.3964 31.1239C58.2649 31.0705 58.2324 30.9904 58.1798 30.8677C58.2665 30.29 59.2984 30.5836 59.656 30.2835C59.9196 30.0622 59.9615 29.3911 59.9778 29.0693C60.0354 27.9555 60.0584 26.8397 60.0679 25.7256L60.1059 19.0307C60.1137 18.091 60.111 17.0779 60.1826 16.1402C60.205 15.85 60.37 15.7184 60.5877 15.5508Z" fill="white"/>
<path id="Vector_4" d="M36.8883 16.0209C38.1589 15.9797 39.4897 15.981 40.7569 15.9938C42.1918 16.0084 43.6096 15.865 45.0015 16.1958C47.2432 16.7286 48.2908 18.8381 47.6208 20.9908C46.9174 23.4668 44.7187 24.7431 42.2023 24.4319C42.0696 24.4154 42.0128 24.314 41.9622 24.214C42.1209 23.5049 43.4085 23.9993 44.2017 23.0839C44.8537 22.3314 45.1683 21.5483 45.1627 20.5302C45.1577 19.6103 44.8025 18.5773 44.1264 17.9498C43.215 17.104 42.6035 17.1733 41.4742 17.2016L41.4663 18.3802L41.4666 25.7119C41.4623 26.8945 41.3527 28.9982 41.7022 30.1754C41.8283 30.6002 43.6482 30.2564 43.6398 30.8622C43.5235 31.034 43.1405 31.2085 42.9666 31.1781C41.9196 30.9951 37.8268 31.381 37.0884 31.0556C36.9742 30.8732 36.9772 30.9364 36.9921 30.7481C37.2146 30.4223 37.8524 30.4781 38.1995 30.3668C38.3162 30.3294 38.3944 30.1871 38.4426 30.0809C38.5603 29.8215 38.5937 29.5151 38.6111 29.2329C38.6842 28.0513 38.7756 17.6133 38.5477 17.0724C38.3428 16.5861 37.3491 16.7689 36.9353 16.5971C36.7979 16.54 36.7701 16.4746 36.7115 16.3444C36.7324 16.1304 36.7164 16.2 36.8883 16.0209Z" fill="white"/>
<path id="Vector_5" d="M14.4715 34.8941C15.8617 34.7796 17.0673 34.808 18.2559 35.59C19.1349 36.1616 19.7647 37.0285 19.9595 38.0624C20.3722 40.2542 19.6117 42.4757 17.5216 43.4872C17.0189 43.7305 16.6624 43.799 16.1176 43.9089C14.8191 44.0685 13.5532 43.9576 12.4355 43.2247C10.1958 41.7627 9.90047 38.2752 11.6276 36.3183C12.3082 35.5471 13.4385 34.949 14.4715 34.8941ZM16.3658 43.3713C17.1577 43.02 17.8314 42.5608 18.0979 41.6889C19.014 38.692 17.9841 34.9544 14.2131 35.4421C13.3631 35.7938 12.8197 36.1614 12.466 37.0437C11.6351 39.1164 12.1928 42.2716 14.4665 43.18C15.0765 43.4237 15.7206 43.4208 16.3658 43.3713Z" fill="white"/>
<path id="Vector_6" d="M94.7059 34.8931C96.1401 34.7904 97.2274 34.7979 98.4691 35.5766C99.8171 36.4174 100.319 37.7762 100.298 39.3156C100.273 41.1377 99.3745 42.7144 97.708 43.5077C97.252 43.7246 96.8698 43.7987 96.3796 43.9036C94.8939 44.1061 93.3875 43.8992 92.2218 42.8826C90.0892 41.0232 90.2896 37.061 92.7518 35.5691C93.3964 35.1788 93.9538 34.9409 94.7059 34.8931ZM96.6152 43.3537C98.6034 42.4937 98.8865 40.579 98.5793 38.5857C98.2514 36.4594 96.6666 35.1051 94.463 35.4416C93.6617 35.756 93.0746 36.1123 92.7322 36.9577C91.6303 39.6765 92.9924 44.0439 96.6152 43.3537Z" fill="white"/>
<path id="Vector_7" d="M49.6376 34.9445C50.1736 34.9204 50.9098 35.0211 51.4353 34.9795C55.1462 34.6856 59.5925 35.103 59.1079 39.9929C58.9876 41.2038 58.2931 42.2983 57.2691 43.0301C57.2265 43.0631 57.1835 43.0949 57.1392 43.1253C55.6665 44.1338 53.4179 43.9002 51.7375 43.793C50.9667 43.7439 50.1828 43.8284 49.4154 43.6873C50.1711 43.5378 50.7365 43.7416 50.7228 42.659C50.6936 40.3349 50.8531 37.804 50.7172 35.5016C50.397 35.3042 49.6377 35.1798 49.5577 35.0725L49.6376 34.9445ZM52.3505 42.9497C53.1046 43.4671 54.0097 43.5026 54.8941 43.3352C55.4951 43.227 56.0592 42.9696 56.5349 42.5865C57.2987 42.0588 57.4918 40.9 57.5466 40.0556C57.7537 36.8404 55.5054 35.3147 52.487 35.5695C52.3924 35.6145 52.2659 35.6557 52.2587 35.7669C52.1771 37.023 52.1017 42.0356 52.3505 42.9497Z" fill="white"/>
<path id="Vector_8" d="M30.8193 15.6973C31.374 15.6928 33.4328 15.8215 33.849 16.1879C34.0464 16.3615 33.9007 19.0571 33.7428 19.4404C33.5987 19.538 33.6642 19.5112 33.4676 19.5209C33.0175 19.2922 33.0567 18.2194 32.5288 17.6592C31.3201 16.3766 28.5187 16.7272 28.4489 18.7712C28.4 20.2044 30.5394 21.4931 31.5888 22.327C32.028 22.6805 32.4408 23.0658 32.8237 23.4797C34.6148 25.4074 35.0504 28.213 32.9804 30.1723C31.7595 31.3279 30.025 31.5079 28.4059 31.437C27.4356 31.3591 26.7506 31.1519 25.8844 30.7586C25.7017 29.9022 25.817 29.2584 25.8451 28.3983C25.86 27.9441 25.7684 27.1043 26.2103 26.8658C26.3028 26.8814 26.4799 26.9185 26.5137 27.0075C26.815 27.8006 26.7182 28.8197 27.425 29.4288C27.9548 29.8854 28.826 30.2483 29.5633 30.1941C30.283 30.1411 30.9874 29.8266 31.4888 29.2919C31.874 28.8811 31.9261 28.329 31.8963 27.7843C31.7977 25.9821 29.7226 24.9495 28.5165 23.844C27.2832 22.7411 26.3094 21.6551 26.2169 19.9325C26.0598 17.0051 28.1767 15.8337 30.8193 15.6973Z" fill="white"/>
<path id="Vector_9" d="M12.8383 0.874002C13.1283 0.896514 13.3822 1.10384 13.5068 1.36225C13.8666 2.10834 14.1514 2.89985 14.4637 3.66851L15.9281 7.1953C16.2692 8.02392 16.6718 9.07626 17.0626 9.86211C16.0514 10.6855 14.9961 11.4915 14.0053 12.3309C13.8001 11.7096 12.5714 8.23947 12.2999 7.82656C12.1297 7.75648 12.2041 7.7595 12.0201 7.82297C11.5196 8.30708 10.3799 11.8881 10.0159 12.8297C9.68144 13.7645 9.2265 15.0317 8.8345 15.9291C8.51117 16.1648 6.04171 17.4987 5.84758 17.4702L5.81222 17.3923C6.14523 16.9203 7.00308 14.5926 7.26105 13.9446L10.3477 6.30701C10.9741 4.73336 11.5998 3.08416 12.2945 1.53903C12.4292 1.23935 12.5763 1.07123 12.8383 0.874002Z" fill="white"/>
<path id="Vector_10" d="M103.121 16.0047L107.075 16.0023C107.61 16.0022 108.931 15.9713 109.377 16.0794C109.462 16.1954 109.445 16.2826 109.441 16.4247C109.206 16.8006 108.419 16.6161 108.007 16.8163C107.875 16.8804 107.776 16.9707 107.73 17.1145C107.528 17.7523 107.585 27.0843 107.673 28.2842C107.698 28.6284 107.746 29.0321 107.902 29.3429C108.722 30.0086 110.967 29.9101 111.955 29.6284C112.651 29.4299 112.854 27.9624 113.327 27.697L113.415 27.7341C113.578 28.0588 113.533 28.6884 113.522 29.0639C113.41 31.6525 112.735 31.2288 110.493 31.1903C109.421 31.1707 108.35 31.1571 107.278 31.1492C106.036 31.1401 104.71 31.1877 103.469 31.1262C103.251 31.1155 103.246 31.0602 103.132 30.9116C103.116 30.7257 103.1 30.7995 103.201 30.6342C103.451 30.4794 103.799 30.4868 104.084 30.4312C104.27 30.3949 104.469 30.306 104.572 30.1391C104.883 29.6386 104.811 19.4119 104.753 18.05C104.737 17.6582 104.7 17.2779 104.623 16.893C104.206 16.7642 103.194 16.6994 103.019 16.4268C102.995 16.1912 103.01 16.2476 103.121 16.0047Z" fill="white"/>
<path id="Vector_11" d="M49.9853 16.0176C51.6394 15.9873 53.3011 16.0037 54.956 15.9988C55.2753 15.9978 55.8552 15.9772 56.0281 16.2679C55.9421 16.8464 54.8367 16.5634 54.5693 16.9456C54.1535 17.5397 54.325 27.2761 54.3899 28.6983C54.4141 29.2277 54.4714 29.7474 54.5529 30.2708C55.0682 30.407 56.3325 30.396 56.544 30.8245C56.4803 31.0447 56.5177 30.9705 56.342 31.1292C55.243 31.1997 53.8753 31.1377 52.7569 31.1498C52.1913 31.156 50.4489 31.2067 50.0238 31.1008C49.9302 30.9865 49.912 30.9696 49.9063 30.8237C50.1882 30.2958 51.3572 30.6506 51.4681 29.8166C51.53 29.3233 51.5706 28.8276 51.5897 28.3308C51.6914 24.7694 51.556 21.078 51.5684 17.5088C51.5719 16.5163 50.2354 16.8561 49.8978 16.411C49.8689 16.2291 49.9051 16.1829 49.9853 16.0176Z" fill="white"/>
<path id="Vector_12" d="M19.7663 19.3277C20.1165 19.52 20.3458 19.535 20.7354 19.5922C21.553 21.9445 22.6773 24.243 23.6331 26.5408C23.9709 27.3529 24.5152 28.4441 24.76 29.2506C24.8457 29.5291 24.872 29.8226 24.8373 30.1119C24.7731 30.6063 24.5669 30.8345 24.199 31.1124C23.5508 31.1636 22.9346 31.1463 22.2853 31.1376C21.5773 31.1284 20.8692 31.1279 20.1612 31.1362C22.3004 29.2364 20.4979 29.9357 19.7321 28.1019C19.4429 27.4095 18.484 22.5388 18.2127 22.3147C18.0736 22.2916 17.9784 22.2903 17.8752 22.1916C17.8729 22.1597 17.8702 22.1211 17.867 22.0759C18.2998 21.5514 18.8512 21.0926 19.2297 20.5272C19.5537 20.0432 19.5974 19.8639 19.7663 19.3277Z" fill="white"/>
<path id="Vector_13" d="M105.079 34.7857C105.161 34.8144 105.269 34.855 105.329 34.9183C107.47 37.1702 109.694 39.3645 111.82 41.6283C111.824 40.9994 111.833 35.9208 111.618 35.5926C111.402 35.2635 110.946 35.1991 110.591 35.1214L110.581 35.0711C110.772 34.9138 113.453 34.9225 113.605 35.0387C113.489 35.1625 113.06 35.2697 112.876 35.3275C112.761 35.4759 112.698 35.8584 112.688 36.0555C112.548 38.6635 112.649 41.3181 112.478 43.9221C112.414 43.9546 112.398 43.9466 112.323 43.9511C111.614 43.5636 106.338 38.0441 105.641 37.2332C105.679 38.0691 105.774 42.9348 106.015 43.3587C106.345 43.6383 106.864 43.6123 107.335 43.6915C106.643 43.8198 104.263 43.8095 103.546 43.7173C103.95 43.5962 104.178 43.6422 104.592 43.5085C105.143 42.9126 104.766 36.2407 105.079 34.7857Z" fill="white"/>
<path id="Vector_14" d="M37.2431 34.7966C37.3291 34.8281 37.4434 34.8828 37.5057 34.9489C39.6584 37.2306 41.9013 39.4253 44.0456 41.714C43.8888 39.9788 44.0413 37.3201 43.7426 35.5684C43.6842 35.226 42.9775 35.2399 42.6506 35.1086C42.7783 34.8991 45.5889 34.9185 45.7368 35L45.7524 35.0938C45.5928 35.2693 45.0808 35.2082 45.0303 35.3231C44.6862 36.1083 44.7822 37.7639 44.7668 38.5941C44.7458 40.3112 44.7024 42.0279 44.6368 43.7439C44.6034 43.853 44.5959 43.8644 44.5145 43.9444C44.0316 43.9242 38.5054 38.0214 37.7916 37.2419C37.833 38.2047 37.8904 42.8265 38.1587 43.3648C38.4562 43.6245 39.041 43.6249 39.4796 43.6992C39.0251 43.7884 36.5755 43.8221 36.0929 43.7473L36.0524 43.6819C36.3404 43.4408 36.7589 43.801 36.9145 43.2269C37.2739 41.901 36.8095 35.5935 37.2431 34.7966Z" fill="white"/>
<path id="Vector_15" d="M66.1229 34.6769C66.6343 34.9995 68.8537 41.4518 69.4009 42.4155C70.1318 43.7013 69.824 43.4429 71.3556 43.7137C70.904 43.7831 68.3657 43.84 67.9936 43.7337L67.9718 43.6574L68.1519 43.5238C68.2196 43.2699 67.3696 41.1876 67.2191 40.777C66.7619 40.8014 66.2292 40.7949 65.7664 40.8005C65.3221 40.806 64.8593 40.7916 64.4133 40.7842C64.2298 41.3539 63.5902 42.9193 63.6198 43.3832C63.809 43.6298 64.3943 43.6473 64.753 43.71C64.072 43.8222 61.7077 43.8174 61.0474 43.6836C61.6747 43.6245 61.9237 43.6307 62.4743 43.3458C62.8549 42.6747 63.2074 41.7188 63.5034 40.9835L65.1234 36.9059C65.3864 36.2504 65.7586 35.2537 66.1229 34.6769ZM64.6131 40.1967L65.9662 40.1916C66.2991 40.1922 66.6567 40.1865 66.9869 40.1972C66.8291 39.7995 65.9751 37.2288 65.7933 37.1371C65.5314 37.8834 64.974 39.5292 64.6131 40.1967Z" fill="white"/>
<path id="Vector_16" d="M31.1586 34.9967C31.4857 34.9878 32.3071 34.882 32.5952 35.034C32.4811 35.156 32.1529 35.2255 31.9591 35.2975C31.6182 35.6475 31.6336 37.3201 31.6671 37.7824C31.9564 41.7759 31.1527 44.9791 26.3433 43.7013C24.5388 43.2219 24.4813 40.7758 24.481 39.3263L24.49 36.9192C24.49 36.5141 24.5074 35.9138 24.365 35.526C24.264 35.2508 23.6886 35.263 23.3378 35.1382L23.2963 35.044L23.3713 34.9446C23.9212 34.9251 24.5522 34.9654 25.1088 34.9719C25.4953 34.9765 26.749 34.8479 26.9519 35.1104C26.816 35.2374 26.239 35.1978 26.1206 35.4533C25.8545 36.1212 25.9421 37.1588 25.966 37.8911C26.0145 39.3793 25.6064 41.9412 26.9685 42.9681C28.2288 43.9181 30.3337 43.2442 30.5253 41.5494C30.7365 39.6813 30.6526 37.6844 30.6095 35.8009C30.5945 35.0722 29.7658 35.3163 29.5068 35.1351L29.518 35.0474C29.7906 34.8743 30.7919 34.9778 31.1586 34.9967Z" fill="white"/>
<path id="Vector_17" d="M72.3287 34.8467C73.2984 35.029 74.7377 34.9832 75.7343 34.9878C77.1697 34.9943 78.5485 35.0339 79.9754 34.8873C79.9732 35.0783 79.9391 36.4898 79.9184 36.5305C79.7975 36.4667 79.6268 36.0847 79.3576 35.8344C78.5933 35.6836 77.6862 35.6785 76.8949 35.6429C76.9906 38.0108 76.8468 40.5947 76.9363 43.0567C76.9318 43.5934 77.628 43.5896 78.0661 43.7249C77.3241 43.8097 74.825 43.8132 74.1149 43.711C74.3605 43.6421 74.938 43.6491 75.1132 43.4807C75.5418 43.0693 75.379 36.7059 75.3913 35.662C74.6084 35.6635 73.4003 35.6935 72.6515 35.837C72.4025 36.1827 72.2374 36.4481 72.0203 36.8158C72.1278 36.1602 72.2307 35.5038 72.3287 34.8467Z" fill="white"/>
<path id="Vector_18" d="M2.0475 35.4361C1.72394 35.2765 1.38073 35.219 1.02251 35.107L1.02286 35.0226C1.09801 34.9624 1.15381 34.9465 1.24759 34.9461C2.85251 34.9389 5.23355 35.1407 6.76693 34.8762C6.66917 35.3658 6.62972 36.2412 6.51898 36.6083C6.43924 36.5712 6.30539 36.049 6.2187 35.8639C5.81295 35.5607 4.19115 35.6421 3.59113 35.616C3.63008 36.581 3.5994 37.7933 3.59881 38.7772C4.709 38.7447 5.64233 39.016 6.52279 38.3686C6.40701 39.0082 6.33023 39.632 6.2872 40.2775C6.2872 40.2775 6.2102 40.3678 6.20248 40.3768C6.11014 40.3035 6.01311 39.8233 5.96734 39.6617C5.51039 39.2723 4.28293 39.4413 3.59611 39.3644C3.59657 40.2434 3.49273 42.5144 3.77359 43.3305C3.82821 43.4892 4.19183 43.5742 4.35853 43.611L4.31431 43.7808C3.26084 43.7561 1.87164 43.8409 0.860476 43.7201C1.10541 43.6585 1.34525 43.6334 1.59174 43.5881C1.70659 43.567 1.89213 43.4992 1.95287 43.3922C2.31956 42.7465 2.23514 36.2262 2.0475 35.4361Z" fill="white"/>
<path id="Vector_19" d="M2.85481 25.2547C3.08782 25.2929 4.99482 27.1913 5.35306 27.5047C5.30272 28.3178 5.15415 28.9794 5.04816 29.7779C4.98444 30.258 5.5253 30.7243 5.87275 31.1293L5.84561 31.1644C5.47531 31.0879 4.79087 31.1303 4.38892 31.1408C3.78574 31.1423 1.92889 31.1696 1.44834 31.1061C0.220771 30.9436 1.9391 27.6946 2.13345 27.0289C2.27331 26.5498 2.71176 25.8671 2.84988 25.2764L2.85481 25.2547Z" fill="white"/>
<path id="Vector_20" d="M83.9389 43.6236C84.1431 43.5387 84.2282 43.5176 84.3636 43.3468C84.5002 42.9206 84.5018 36.1564 84.3916 35.5405C84.2013 35.2253 83.851 35.2425 83.5181 35.1671L83.4907 35.0814C83.7262 34.8802 84.334 34.9242 84.6266 34.9749C85.1163 35.0596 86.5813 34.8199 86.9265 35.0395L86.9383 35.1393C86.6216 35.3642 86.1414 35.039 86.0379 35.6351C85.9064 36.393 85.8504 43.0233 86.1045 43.3601C86.2455 43.5463 86.4649 43.5735 86.682 43.6127C86.5119 43.7629 84.1235 43.761 83.9389 43.6236Z" fill="white"/>
<path id="Vector_21" d="M31.213 7.95808C31.518 7.9583 32.3262 7.93485 32.5579 8.0633C32.4863 8.19506 32.145 8.17844 32.1006 8.35878C31.959 8.93334 32.0504 9.76325 32.0236 10.3474L35.0138 10.3582C35.0158 9.65343 35.0851 8.78686 34.8499 8.142L34.8535 8.0478C35.0177 8.02592 35.1812 8 35.344 7.97C35.6273 7.95908 36.2184 7.94448 36.4603 8.07411L36.4358 8.134C36.1889 8.17587 36.1401 8.14172 35.9808 8.29156C35.86 8.92472 35.9157 12.6298 36.0106 13.3234C35.9693 13.3875 35.9565 13.4385 35.902 13.4474C35.4356 13.5237 34.8297 13.4386 34.367 13.4912C34.4684 13.3805 34.6004 13.3912 34.7848 13.3424C35.0734 13.0347 35.0205 11.2666 35.0271 10.7406L32.0291 10.7316C32.0358 11.278 31.961 12.7274 32.1621 13.2473C32.2246 13.409 32.6563 13.2927 32.7944 13.4568L32.724 13.5115C32.3577 13.5583 30.847 13.6076 30.5436 13.4812L30.5825 13.4197L30.92 13.3646C31.0255 13.1754 31.1058 12.5317 31.0928 12.3296C31.0481 11.6367 31.2581 8.61464 30.9526 8.17559L30.9896 8.04612L31.213 7.95808Z" fill="white"/>
<path id="Vector_22" d="M22.7851 14.071C22.8 14.0805 22.8452 14.1477 22.859 14.1669C22.7598 14.7155 22.6251 15.3832 22.6147 15.9298C22.6021 16.5916 22.821 17.3331 22.6402 17.9907C22.5489 18.3228 22.3476 18.717 22.0283 18.868C21.4079 19.1613 20.9259 19.0483 20.3291 18.8664C20.3033 18.8545 20.2777 18.8422 20.2523 18.8297C19.3165 18.3646 20.504 16.9849 20.4412 16.2584C20.4266 15.9811 20.2109 15.1366 20.3998 14.9239C20.8067 14.4656 22.2449 14.2002 22.7851 14.071Z" fill="white"/>
<path id="Vector_23" d="M38.5893 7.97125C39.245 7.89781 40.7321 7.92295 41.3898 8.06338C41.5551 8.0987 41.5271 8.78722 41.4487 8.92026C41.2914 8.84174 41.2174 8.51122 41.0661 8.415C40.8555 8.281 39.9082 8.33905 39.6716 8.34095C39.6986 8.95877 39.7068 9.79931 39.671 10.4072C40.545 10.3972 40.5448 10.5024 41.4131 10.2024L41.4614 10.2676C41.3942 10.591 41.4252 11.2021 41.3165 11.3495L41.2391 11.3316C41.1966 11.1451 41.1863 11.0896 41.102 10.9181C40.8102 10.7438 40.0454 10.7615 39.6746 10.7521C39.6913 11.1583 39.6855 11.6122 39.6891 12.0224C39.6859 12.272 39.6283 12.9067 39.8239 13.074C40.0599 13.1755 40.2601 13.1933 40.5139 13.1892C41.499 13.1735 41.409 13.0641 41.7772 12.2343C41.7772 12.5487 41.6598 13.2214 41.6099 13.5587C41.4672 13.5743 41.3239 13.5835 41.1804 13.5861C40.7896 13.5916 38.311 13.6052 38.1423 13.4422C38.4093 13.3698 38.4786 13.4167 38.6285 13.2456C38.7312 12.7209 38.8088 8.71826 38.6302 8.27026C38.4968 8.13508 38.331 8.13659 38.1397 8.11113L38.1117 8.06181C38.2104 7.99493 38.4582 7.98524 38.5893 7.97125Z" fill="white"/>
<path id="Vector_24" d="M24.5413 7.89933C24.8568 8.02152 28.7125 7.96991 29.3837 7.982C29.3405 8.22588 29.2656 8.4946 29.32 8.73215C29.335 8.79797 29.334 8.76909 29.2918 8.83732C28.6099 8.17567 28.3828 8.34605 27.3498 8.33502C27.4079 9.76893 27.2642 11.9502 27.4431 13.2888C27.5891 13.3617 28.2671 13.4302 28.4965 13.4689C28.0866 13.541 26.1873 13.6445 25.9145 13.4562L25.9548 13.3953L26.2732 13.3561C26.5274 13.0817 26.4652 9.02869 26.474 8.34599C25.8613 8.34577 25.3763 8.34381 24.7654 8.40353C24.5886 8.72381 24.4766 8.87577 24.2538 9.16778C24.3398 8.72017 24.4277 8.34107 24.5413 7.89933Z" fill="white"/>
<path id="Vector_25" d="M72.9068 47.6108C73.3931 47.5637 73.8581 47.8233 74.0736 48.2623C74.2885 48.7014 74.209 49.2279 73.8738 49.5839C73.6875 49.782 73.4379 49.909 73.1682 49.9434C72.7479 49.997 72.3316 49.82 72.0787 49.4804C71.8257 49.1407 71.7753 48.691 71.9466 48.3037C72.1184 47.9164 72.4855 47.6516 72.9068 47.6108ZM72.3002 48.0385C72.0675 48.8048 72.0048 49.1736 72.6506 49.737L73.3517 49.7781C74.3987 49.2118 73.9443 47.7138 72.8593 47.7432L72.3002 48.0385Z" fill="white"/>
<path id="Vector_26" d="M23.9056 47.2356C24.9201 47.3683 26.2299 47.1542 25.247 48.7292C25.5406 49.197 26.1549 49.7784 26.2173 49.9021C25.9906 49.9099 25.7896 49.7836 25.584 49.6809C25.4263 49.3886 25.024 48.8116 24.6589 48.8064C24.3536 49.1135 24.6473 49.6651 24.4863 49.9305L24.2428 49.9191C24.0433 49.6143 24.7563 47.7619 23.9056 47.2356ZM25.0693 48.7149C25.226 48.4532 25.4013 48.1866 25.327 47.8644C25.2986 47.7355 25.2179 47.6242 25.1042 47.5569C24.9451 47.4629 24.7084 47.4316 24.5256 47.4269C24.4762 47.6761 24.3524 48.6882 24.763 48.7589C24.8268 48.77 25.0153 48.7596 25.0693 48.7149Z" fill="white"/>
<path id="Vector_27" d="M70.5987 47.6237C70.7039 47.626 70.8282 47.6396 70.9351 47.6483C71.0828 47.8018 71.0072 49.5382 71.0156 49.9218C70.4465 49.6108 69.5495 48.5833 69.1388 48.0478C69.1561 48.5256 69.1623 49.3697 69.2485 49.8662C69.2171 49.9139 69.1863 49.9615 69.155 50.0091C68.9362 49.9333 68.9569 49.8501 68.9485 49.647C68.92 48.9444 68.9401 48.2373 68.9508 47.5344C69.5719 48.2048 70.2026 48.8659 70.8433 49.5173C70.8416 48.9551 70.9188 48.0397 70.5987 47.6237Z" fill="white"/>
<path id="Vector_28" d="M46.1337 49.9321C45.933 49.9314 45.6427 49.9437 45.457 49.8922C45.4722 49.4629 45.4811 49.0345 45.491 48.605C45.4976 48.3185 45.3632 47.8516 45.5196 47.6288C48.3365 47.5209 47.5006 49.6943 46.95 49.7824C46.7395 49.2602 47.8431 49.2013 46.856 48.0158C46.4484 47.8643 46.2027 47.8043 45.7764 47.7072C45.7569 48.1889 45.7082 49.2557 45.7664 49.7021C45.9495 49.8091 45.9735 49.7707 46.2184 49.7714L46.2347 49.8536L46.1337 49.9321Z" fill="white"/>
<path id="Vector_29" d="M54.374 48.5969C54.3805 48.4012 54.3947 48.0776 54.3496 47.8847C54.3351 47.8226 54.2163 47.7814 54.2116 47.6155L54.6697 47.6766C54.6736 48.1536 54.4411 49.5432 54.7371 49.8669C54.5807 49.9104 54.4773 49.9386 54.3545 49.8405C54.3016 49.6028 54.3773 49.0356 54.3934 48.745C53.9378 48.7525 53.4821 48.7507 53.0266 48.7396C53.0318 48.8504 53.1278 49.8959 53.1298 49.8731C52.956 49.9598 53.0345 49.9449 52.8268 49.9148L52.7657 49.8293C52.9202 49.3613 52.8292 48.4741 52.8291 47.9598C52.829 47.7605 52.6944 47.814 52.6038 47.5953C52.7631 47.607 52.9887 47.6037 53.1076 47.696C53.1398 47.7872 53.0401 48.356 53.0315 48.6005C53.4788 48.5825 53.9266 48.5812 54.374 48.5969Z" fill="white"/>
<path id="Vector_30" d="M56.579 47.6628L56.6506 47.7216C56.7939 48.2493 57.152 49.0873 57.3842 49.5988C57.41 49.6555 57.4962 49.7274 57.56 49.853C57.3915 49.9576 57.462 49.9463 57.2936 49.9181C57.1503 49.7943 57.0328 49.3985 56.9103 49.1752C56.739 49.0769 56.6965 49.1221 56.4581 49.141C56.3177 49.1061 56.2925 49.095 56.1621 49.1528C55.9875 49.3197 55.9914 49.541 55.9097 49.8094C55.7616 49.9502 55.8347 49.9102 55.6278 49.9547L55.5609 49.9028C55.879 49.5131 56.1974 48.2936 56.579 47.6628ZM56.6808 48.9948L56.7709 48.9079C56.7631 48.6155 56.7564 48.5561 56.6461 48.2859L56.5051 48.2055C56.4106 48.385 56.2376 48.6494 56.2589 48.8369C56.3803 48.9915 56.3613 48.958 56.6036 48.9867C56.6294 48.9896 56.6551 48.9923 56.6808 48.9948Z" fill="white"/>
<path id="Vector_31" d="M40.4446 47.6165C40.517 47.6175 40.5894 47.6188 40.6618 47.6206C41.8252 47.6487 42.2678 48.0232 41.6561 48.8597C41.5404 49.0179 42.2506 49.6787 42.4125 49.8452L42.3796 49.8947C41.6077 49.7669 41.737 49.1656 41.0889 48.8484L41.2048 48.8695C42.1458 48.7328 41.4694 47.5789 40.9559 47.8402C40.8017 48.1181 40.9385 49.5297 40.9408 49.8764L40.8586 49.9496C40.686 49.9169 40.7457 49.9533 40.6366 49.811C40.7104 49.261 40.8223 48.0044 40.4446 47.6165Z" fill="white"/>
<path id="Vector_32" d="M30.0133 47.5872C30.289 47.5727 30.9984 47.6123 31.0271 47.9718C30.5312 48.1286 29.0438 46.8744 29.2559 49.1883C29.5736 49.574 30.0443 49.8808 30.5639 49.7663C30.6943 49.6446 30.659 49.7007 30.6749 49.4939C30.6633 49.2727 30.5977 48.9471 30.8166 48.8387C31.0121 48.9948 31.0287 49.3974 30.9397 49.6078C30.6653 50.257 29.6797 49.8226 29.2548 49.6494C28.6013 48.6941 28.9394 47.9183 30.0133 47.5872Z" fill="white"/>
<path id="Vector_33" d="M87.8048 47.2792L87.8832 47.3156C87.8216 47.5332 87.0348 47.9088 87.041 48.6123C87.0443 49.0416 87.0136 49.7831 87.6263 49.8435C87.9246 49.7808 88.1299 49.3851 88.0958 49.0974C88.0639 48.8226 87.7724 48.6402 87.5653 48.488L87.5983 48.4406L87.9481 48.4057C88.4472 48.6237 88.2861 49.2538 88.2128 49.6715C87.9117 49.8356 87.6414 49.9845 87.3045 49.9222C86.3359 49.7431 86.792 48.1615 87.3017 47.697C87.478 47.5359 87.6358 47.4092 87.8048 47.2792Z" fill="white"/>
<path id="Vector_34" d="M80.432 47.1884C80.7549 47.2022 81.3184 47.3992 81.3386 47.7885C81.3833 48.6606 80.615 49.1508 80.1517 49.7572C81.1203 49.7648 81.0241 49.7242 81.7896 49.1352C81.5669 49.4757 81.4107 49.8063 81.0213 49.9257C80.6419 49.9242 80.2602 49.9274 79.8819 49.8991C79.873 49.4092 82.2037 48.1623 80.4522 47.3118C80.2994 47.4474 80.1041 47.6827 79.9049 47.5793L79.9474 47.46C80.1052 47.2918 80.2127 47.2687 80.432 47.1884Z" fill="white"/>
<path id="Vector_35" d="M84.8722 47.3236C85.1643 47.3164 85.7703 47.2376 85.9628 47.45L85.9505 47.5299C85.6875 47.6701 85.1922 47.4637 84.8772 47.6891L84.8856 47.8211C85.3321 48.5263 86.5392 48.5492 85.6052 49.7153C85.4206 49.7691 85.3657 49.7838 85.2409 49.9341C85.0322 49.9395 84.7586 49.9682 84.5862 49.8658C84.4592 49.7382 84.462 49.6986 84.4407 49.5214C84.7289 49.6479 85.5806 50.0147 85.735 49.3336C85.8548 48.8085 85.2247 48.4105 84.7088 48.3068C84.8229 47.9256 84.7569 47.5148 84.8722 47.3236Z" fill="white"/>
<path id="Vector_36" d="M82.685 47.6889L82.8753 47.7027C82.5317 48.25 82.1573 49.1205 82.6542 49.7466C82.7712 49.8939 83.2507 49.7897 83.3436 49.6671C83.7477 49.1345 83.441 48.7353 82.9564 48.4461C83.3341 48.3367 83.6094 48.4163 83.7007 48.8284C83.9855 50.1171 82.4147 50.4531 82.1819 49.1654C82.0834 48.6199 82.3772 48.1216 82.685 47.6889Z" fill="white"/>
<path id="Vector_37" d="M50.7429 47.5901C51.0572 47.5751 51.6606 47.6007 51.77 47.9543L51.7659 47.8699C51.6464 48.1064 50.978 47.596 50.5531 47.8016C49.6871 48.2204 49.8361 49.4332 50.7013 49.752C50.9429 49.7537 51.3576 49.7269 51.5372 49.8748L51.5334 49.8952C51.0092 50.0552 50.4727 49.8541 50.0134 49.6262C49.4745 48.6393 49.7022 47.9925 50.7429 47.5901Z" fill="white"/>
<path id="Vector_38" d="M58.4862 49.7752C58.5348 49.326 58.5936 48.0522 58.4061 47.6744C58.9411 47.2922 60.3613 48.009 59.4761 48.8565C59.6037 48.0198 59.5298 48.0391 58.7928 47.6231C58.7743 48.2562 58.8387 49.2977 58.7867 49.8325C58.6378 49.9026 58.6182 49.9108 58.4554 49.8924L58.4302 49.8266L58.4862 49.7752Z" fill="white"/>
<path id="Vector_39" d="M43.4289 49.9556L43.3444 49.9453C43.0437 49.7251 43.4768 48.2455 43.1828 47.7505L43.2105 47.6883C43.4957 47.5988 44.25 47.518 44.3653 47.8755L44.2925 47.9451C44.0501 47.8635 43.8188 47.7965 43.5738 47.7263L43.5407 48.6576C43.7319 48.644 44.2077 48.6002 44.3611 48.7056L44.3384 48.8163C44.1842 48.9003 43.8236 48.8012 43.6309 48.7668C43.5429 48.9084 43.5263 49.4492 43.509 49.6619C43.4575 49.7874 43.4394 49.8211 43.4289 49.9556Z" fill="white"/>
<path id="Vector_40" d="M34.2011 47.5792C34.4568 47.598 34.6055 47.6336 34.7912 47.8138C34.5882 47.9073 34.3079 47.6597 33.9754 47.8333C33.5949 48.5551 36.082 49.5822 34.0244 49.9518C33.7413 49.9161 33.5443 49.8823 33.5048 49.5783L33.4907 49.6675L33.5171 49.5663C33.6808 49.5515 34.1879 50.0741 34.5912 49.5317C34.5645 48.9349 32.6782 48.0818 34.2011 47.5792Z" fill="white"/>
<path id="Vector_41" d="M64.6636 47.6171C64.8057 47.6254 64.8902 47.6461 65.0262 47.676C65.4218 47.9729 65.5746 48.4156 65.7828 48.8631C65.9518 48.5328 66.1319 48.2087 66.3233 47.8911C66.4397 47.7015 66.4504 47.6917 66.6317 47.6491L66.6882 47.71C66.5365 47.8934 66.3782 48.1577 66.2472 48.3627C66.1297 48.4993 66.0217 48.6993 65.9288 48.8582C65.9143 49.1475 66.0447 49.7039 65.8594 49.9057C65.6882 49.9291 65.7128 49.9555 65.5953 49.8729C65.766 48.9012 65.3474 48.2777 64.6636 47.6171Z" fill="white"/>
<path id="Vector_42" d="M26.803 47.6153C27.1909 47.6177 27.7002 47.5726 28.0074 47.7951L27.9822 47.8549C27.7655 47.8233 27.5293 47.7441 27.3406 47.8168C27.2448 47.9803 27.2619 48.4131 27.2564 48.6247C27.6011 48.6008 27.6833 48.5927 28.0138 48.7145L28.0247 48.749C27.6314 48.8582 27.5169 48.7366 27.3257 48.8178L27.2916 48.9621L27.2722 49.7574C27.4176 49.7677 27.9009 49.7771 27.9832 49.8407C27.7568 49.9149 27.5209 49.9558 27.2827 49.9619C27.1268 49.9645 27.0461 49.9662 26.9498 49.8675C27.1692 49.5497 27.0968 48.5425 27.0844 48.1328C27.0747 47.8136 27.0074 47.7859 26.803 47.6153Z" fill="white"/>
<path id="Vector_43" d="M62.5346 47.6502C63.0069 47.6513 63.665 47.5951 64.1272 47.6782C64.2089 47.6928 64.2117 47.7423 64.2548 47.8249L64.2011 47.9328C63.9235 47.8798 63.6762 47.8458 63.3969 47.8095C63.388 48.421 63.388 49.0325 63.3964 49.6439L63.5105 49.8221L63.4747 49.9219L63.341 49.949C63.2912 49.9301 63.2324 49.9079 63.1641 49.8822C63.0791 49.347 63.3689 48.4483 63.1423 47.973C62.7808 47.6765 62.7461 47.9368 62.3158 47.9068C62.3455 47.7669 62.402 47.7619 62.5346 47.6502Z" fill="white"/>
<path id="Vector_44" d="M89.1263 47.2932C89.522 47.3371 90.3423 47.3011 90.7693 47.2942C90.0183 48.3117 90.0138 49.2799 89.6104 49.9364C89.5248 49.9245 89.5236 49.9134 89.4604 49.8572C89.5561 49.1999 90.1129 48.1544 90.4369 47.5504C90.081 47.5471 89.3658 47.6711 89.1476 47.524L89.1263 47.2932Z" fill="white"/>
<path id="Vector_45" d="M78.2561 47.1887C78.453 47.2018 78.7882 47.3226 78.9304 47.477C79.0647 47.8447 78.8727 47.8923 78.7435 48.2554C78.6467 48.4821 78.9388 48.5801 79.0434 48.8146C79.1542 49.064 78.9925 49.6315 78.7502 49.7431C78.6741 49.5453 78.7804 49.372 78.861 49.1424C78.7144 48.7 78.5761 48.7974 78.2796 48.4456L78.2919 48.3811L78.6103 48.3249C78.6741 48.0049 78.7659 47.8038 78.6097 47.5379C78.3159 47.3524 78.025 47.4682 77.6858 47.5443C77.7412 47.3376 78.0731 47.2305 78.2561 47.1887Z" fill="white"/>
<path id="Vector_46" d="M35.6147 47.6345C36.144 47.6676 36.7345 47.6354 37.2913 47.6614C37.4433 47.7662 37.4119 47.7123 37.4387 47.8572C37.212 48.0342 37.0262 47.7259 36.6775 47.8824C36.5929 48.1518 36.6419 49.144 36.648 49.4939C36.6475 49.5577 36.6758 49.7185 36.6863 49.7899C36.5974 49.9452 36.6484 49.9035 36.5016 49.9654L36.3774 49.882C36.4164 49.1679 36.4246 48.5219 36.426 47.806C36.206 47.8399 35.8304 47.9311 35.6508 47.8235L35.6147 47.6345Z" fill="white"/>
<path id="Vector_47" d="M38.4687 49.9488C38.3913 49.9354 38.3933 49.9261 38.3329 49.8728C38.5248 49.5265 38.5505 47.9996 38.2385 47.6924L38.2481 47.638C38.5694 47.6334 39.1707 47.5631 39.3982 47.7413L39.3753 47.8574C39.1552 47.9531 39.0892 47.6709 38.7437 47.8858C38.6159 48.0656 38.643 48.3739 38.6391 48.606C38.8886 48.6118 39.1914 48.5902 39.3832 48.7251L39.3528 48.8457C39.0514 48.9107 39.0432 48.7286 38.7329 48.7677C38.6046 48.9458 38.6711 49.5299 38.6843 49.7725L38.6959 49.8559L38.4687 49.9488Z" fill="white"/>
<path id="Vector_48" d="M61.025 47.6363C61.2125 47.6273 61.2807 47.6297 61.4671 47.6524C61.3278 48.0309 61.288 49.5751 61.4995 49.9013C61.3568 49.9364 61.3339 49.9349 61.1873 49.9226C60.9332 49.5873 61.3697 48.2532 61.025 47.6363Z" fill="white"/>
<path id="Vector_49" d="M32.088 47.5922C32.1329 47.5953 32.5156 47.6229 32.5157 47.6893C32.517 48.2869 32.3382 49.4031 32.5872 49.9315C32.4133 49.9429 32.37 49.9469 32.1946 49.9173C32.1574 49.8091 32.3728 48.2322 32.1679 47.7764C32.1404 47.7154 32.1151 47.6535 32.088 47.5922Z" fill="white"/>
<path id="Vector_50" d="M60.0756 49.8746C59.8982 49.7888 59.0868 49.0097 58.9732 48.8387C59.0845 48.7853 59.338 48.8385 59.4763 48.8565C59.638 49.2435 60.047 49.5936 60.3498 49.8918C60.2093 49.9452 60.2479 49.928 60.0756 49.8746Z" fill="white"/>
<path id="Vector_51" d="M86.6831 43.6128C86.865 43.5942 87.0715 43.586 87.2198 43.707C87.0054 43.8293 83.7693 43.8275 83.5802 43.696C83.7335 43.5885 83.7162 43.6241 83.94 43.6237C84.1247 43.7611 86.513 43.763 86.6831 43.6128Z" fill="white"/>
<path id="Vector_52" d="M36.0098 13.3233L36.0453 13.3327C36.2798 13.393 36.5688 13.3591 36.6957 13.4414L36.6763 13.5013C36.355 13.5717 34.6667 13.5914 34.3662 13.4911C34.8289 13.4384 35.4347 13.5236 35.9011 13.4472C35.9557 13.4383 35.9685 13.3874 36.0098 13.3233Z" fill="white"/>
<path id="Vector_53" d="M77.656 49.5135C77.7634 49.5699 77.7662 49.6567 77.8479 49.6938C78.1182 49.8172 78.3583 49.6861 78.5793 49.8572C78.3728 49.9552 77.9996 50.0077 77.7869 49.908C77.6252 49.7445 77.6728 49.7968 77.656 49.5135Z" fill="white"/>
<path id="Vector_54" d="M43.429 49.9555C43.4396 49.821 43.4576 49.7873 43.5091 49.6618C43.78 49.9584 44.1988 49.593 44.3698 49.7414C44.2643 50.043 43.7418 49.9151 43.429 49.9555Z" fill="white"/>
<path id="Vector_55" d="M38.6854 49.7726C38.8734 49.7602 39.3011 49.7001 39.4286 49.7852C39.1404 50.0041 38.7878 49.9236 38.4698 49.9489L38.697 49.856L38.6854 49.7726Z" fill="white"/>
<path id="Vector_56" d="M34.0901 8.0542C34.5996 7.97746 34.8301 7.94298 35.3443 7.97001C35.1814 8.00002 35.0179 8.02593 34.8538 8.04782L34.8502 8.14202C34.6255 8.1854 34.3178 8.10328 34.0901 8.0542Z" fill="white"/>
<path id="Vector_57" d="M82.6848 47.6889C82.846 47.5497 83.0581 47.3275 83.2567 47.3003L83.2707 47.3572C83.1331 47.5345 83.0626 47.5743 82.8751 47.7026L82.6848 47.6889Z" fill="white"/>
<path id="Vector_58" d="M30.1133 8.06237C30.5204 8.00242 30.8009 7.97824 31.2124 7.95809L30.9891 8.04613L30.9521 8.1756C30.6735 8.14649 30.3909 8.10233 30.1133 8.06237Z" fill="white"/>
<path id="Vector_59" d="M4.35674 43.6109C4.52129 43.61 4.71317 43.5875 4.84571 43.6753C4.71565 43.8046 4.5051 43.7809 4.31252 43.7807L4.35674 43.6109Z" fill="white"/>
<path id="Vector_60" d="M46.2172 49.7713C46.3939 49.7712 46.568 49.7499 46.7147 49.8403C46.5854 49.9717 46.311 49.9377 46.1325 49.932L46.2335 49.8534L46.2172 49.7713Z" fill="white"/>
</g>
<defs>
<clipPath id="clip0_0_573">
<rect width="114.604" height="50.935" fill="white"/>
</clipPath>
</defs>
</svg>
