<svg width="139" height="39" viewBox="0 0 139 39" fill="none" xmlns="http://www.w3.org/2000/svg">
<g clip-path="url(#clip0_2265_5992)">
<path d="M44.755 5.42846C47.9056 4.86231 50.9203 6.95269 51.4956 10.1025C52.071 13.2522 49.99 16.2738 46.8427 16.8585C43.6823 17.4458 40.646 15.3537 40.0682 12.1908C39.4905 9.02782 41.5911 5.99698 44.755 5.42846ZM46.3906 14.1558C49.1141 13.3781 49.5311 9.88145 47.167 8.40365C46.6547 8.08351 46.0032 8.10407 45.4198 8.11378C42.6923 8.47499 42.0539 12.0292 44.0437 13.6713C44.7005 14.2132 45.5849 14.187 46.3906 14.1558Z" fill="black"/>
<path d="M53.0378 5.66218C54.5085 5.58331 56.0193 5.66585 57.5059 5.63626C60.4677 5.57731 62.3845 7.62982 61.7053 10.6303C61.4662 11.6866 60.7765 12.2316 59.8831 12.7512C60.5935 13.9373 61.4246 15.5296 62.1461 16.6353C61.676 16.6611 61.1596 16.6625 60.6851 16.6725C60.349 16.6812 59.3238 16.7232 59.1007 16.6121C58.64 16.3829 57.2544 13.682 57.0402 13.2269L56.0189 13.2176L56.0162 16.6936C55.0262 16.6912 54.0363 16.6804 53.0465 16.6613C52.9535 13.1445 53.0425 9.21725 53.0378 5.66218ZM56.024 10.9329C56.6319 10.9205 58.0432 10.9751 58.4487 10.5446C59.2349 9.73549 59.0221 9.18421 58.3852 8.38931C57.4766 8.11253 56.9534 8.17146 56.0178 8.16923C56.0158 9.08172 56.0014 10.0231 56.024 10.9329Z" fill="black"/>
<path d="M39.9141 22.1094C40.6589 22.19 42.1009 22.1481 42.8621 22.1296C42.8764 23.4655 42.8712 25.0422 42.8133 26.366C43.8879 26.3153 45.5991 26.3012 46.6602 26.3377C46.5897 25.1159 46.6415 23.4442 46.6367 22.1758C47.3746 22.1018 48.8139 22.138 49.6287 22.1232L49.6213 29.7075C49.6217 30.6301 49.6934 32.3752 49.6275 33.198C48.6362 33.2115 47.6322 33.205 46.6398 33.206C46.6573 31.7656 46.646 30.3089 46.6458 28.8672C46.2234 28.9311 43.4172 28.8852 42.8543 28.8771C42.9045 30.1222 42.8844 31.9831 42.8441 33.2292C41.8964 33.1828 40.8726 33.2083 39.9188 33.2145C39.9619 31.9351 39.9267 30.4852 39.9257 29.1931L39.9141 22.1094Z" fill="black"/>
<path d="M90.8245 5.54418C93.0464 5.42105 94.6123 5.71359 96.1149 7.47384C95.366 8.13261 94.8759 8.56872 94.0953 9.19573C92.6203 7.90295 90.5461 7.40311 89.2828 9.4179C88.8393 10.1257 88.786 11.6019 89.057 12.3941C89.8579 14.7337 92.077 14.4801 93.9827 13.8739L93.9746 12.794L91.6928 12.8193L91.6921 10.5103C92.2118 10.5418 92.9304 10.5209 93.465 10.5208L96.5403 10.517C96.6367 11.7845 96.5841 13.95 96.5726 15.2712C95.3977 16.1411 94.9238 16.3348 93.4724 16.6505C90.2684 17.3475 86.6491 15.7959 85.9427 12.3661C85.6339 10.8688 85.9298 9.09182 86.8183 7.81523C87.8396 6.34813 89.1305 5.85182 90.8245 5.54418Z" fill="black"/>
<path d="M80.1392 21.8789C82.5559 23.6178 84.8903 25.8261 87.2315 27.659C87.123 25.8793 87.3083 23.7719 87.1715 22.1458C88.1179 22.1324 89.0637 22.1332 90.0095 22.148C90.091 24.8294 89.9933 27.5454 90.0257 30.2295C90.0385 31.2989 90.0263 32.3933 89.9852 33.4615C89.5598 33.3294 83.4518 28.1933 82.8471 27.6053C82.8545 29.4819 82.8397 31.3235 82.903 33.2009C82.0961 33.2383 80.9299 33.1968 80.0967 33.193C80.152 32.2852 80.0934 31.1443 80.1102 30.2153C80.1581 27.4826 80.0212 24.5978 80.1392 21.8789Z" fill="black"/>
<path d="M74.5659 5.35938C75.2056 5.76423 75.906 6.3826 76.5013 6.87163L79.5887 9.42556C80.0396 9.79931 81.4074 10.8068 81.6993 11.1984C81.6238 9.36043 81.6494 7.46957 81.6622 5.62703C82.581 5.63924 83.4998 5.63821 84.4186 5.6239C84.5204 6.42114 84.4645 8.53391 84.4645 9.43426C84.4759 11.7344 84.4672 14.0345 84.4368 16.3345C84.4274 16.5787 84.4267 16.6616 84.3559 16.9023C84.1955 16.8961 77.8798 11.6727 77.3061 11.1069C77.3412 11.8557 77.3061 12.7312 77.3183 13.4962C77.3351 14.5303 77.4032 15.6398 77.3318 16.6599L74.5234 16.6581C74.6589 13.118 74.5349 8.97009 74.5659 5.35938Z" fill="black"/>
<path d="M104.485 5.64492C105.472 5.64077 106.458 5.63153 107.445 5.61719L107.443 9.11422C107.435 10.0734 107.444 11.0905 107.453 12.0594C107.508 13.2762 107.209 14.5896 106.311 15.4843C104.518 17.2701 100.758 17.2761 99.0015 15.4861C98.5384 15.0108 98.2101 14.4207 98.0503 13.7763C97.7982 12.7804 97.8616 11.0552 97.865 9.96636L97.8859 5.64485L99.0635 5.62941L100.922 5.64273L100.897 10.2247C100.895 11.3355 100.773 12.8451 101.229 13.8392C102.297 14.4789 104.022 14.6174 104.36 13.0888C104.566 12.1565 104.49 11.0322 104.492 10.0651C104.501 8.59172 104.499 7.11831 104.485 5.64492Z" fill="black"/>
<path d="M71.1612 22.1453C73.5927 22.1024 76.0302 22.143 78.4624 22.129C78.4274 22.9616 78.4671 23.7916 78.4995 24.6235C76.9544 24.7192 75.1815 24.7031 73.6325 24.6273C73.6446 25.2231 73.6412 25.82 73.6453 26.416C74.9982 26.4122 76.3518 26.4182 77.7047 26.434C77.6528 27.217 77.6764 28.0112 77.6744 28.796L73.6318 28.7957L73.6277 29.5419C73.6459 29.9137 73.6439 30.2831 73.6385 30.6552C75.3056 30.6731 76.9726 30.6774 78.6397 30.6681C78.6316 31.5168 78.6336 32.3656 78.6471 33.2142L70.6698 33.1931C70.6125 30.9499 70.7419 28.4788 70.6873 26.1985C70.6684 25.3837 70.603 22.9177 70.6704 22.2391C70.7803 22.1362 71.0007 22.1525 71.1612 22.1453Z" fill="black"/>
<path d="M56.0064 21.875C56.0254 21.8879 56.0431 21.9011 56.0605 21.9162C56.0697 21.9242 56.0786 21.9326 56.0877 21.9407C56.4994 22.3067 60.8381 31.8225 61.5581 33.1982C60.5856 33.2278 59.4698 33.198 58.4931 33.1791C58.2877 32.8163 57.9545 32.2244 57.8755 31.8229L56.067 31.8284C55.3644 31.8429 54.7328 31.8521 54.0276 31.825C53.7524 32.7682 53.6117 33.3112 52.4658 33.2421C51.8303 33.2038 51.162 33.1955 50.5234 33.1905C50.8087 32.7599 51.6331 30.9278 51.9079 30.35L54.0636 25.8253C54.619 24.6378 55.3498 23.01 56.0064 21.875ZM54.9834 29.6488C55.3047 29.6314 55.6338 29.598 55.9551 29.603L56.9516 29.6267C56.6438 29.1479 56.2613 27.7 55.9195 27.4276L54.9834 29.6488Z" fill="black"/>
<path d="M68.0896 5.24609C68.2116 5.372 68.8635 6.79971 68.9929 7.06659C70.54 10.2435 71.9927 13.4923 73.5607 16.6571C72.5374 16.6704 71.5141 16.6718 70.4915 16.6615C70.2582 16.2404 70.1328 15.7706 69.9906 15.3105L67.9986 15.2999L66.0418 15.3117C65.9048 15.8315 65.7211 16.1909 65.4717 16.6553L62.6328 16.6582C64.0919 13.017 66.2199 9.42559 67.7667 5.80125C67.8557 5.59311 67.9467 5.42235 68.0896 5.24609ZM67.0007 13.216C67.2983 13.2067 67.9818 13.1691 68.2514 13.1861C68.488 13.1909 68.7995 13.1892 69.0273 13.2137C68.844 12.8855 68.0256 10.9987 67.911 10.9039C67.671 11.7687 67.3242 12.4071 67.0007 13.216Z" fill="black"/>
<path d="M121.702 5.30273C122.071 5.6995 126.642 15.5148 127.09 16.6632C126.124 16.6399 125.178 16.6813 124.197 16.6423C123.787 16.1321 123.689 15.9332 123.525 15.3004L121.577 15.2979L119.669 15.3098L119.137 16.6361C118.634 16.6584 116.616 16.7298 116.262 16.5429C116.261 16.4389 121.311 5.91604 121.702 5.30273ZM120.589 13.2216L121.574 13.1627L122.573 13.2113C122.468 12.9858 121.577 10.9026 121.582 10.9059C121.34 11.4451 120.735 12.7329 120.589 13.2216Z" fill="black"/>
<path d="M60.0681 22.1501C62.5611 22.0877 62.1424 21.7962 63.1602 24.166C63.5957 25.1799 64.1075 26.2604 64.5354 27.2888C64.8465 26.1615 66.1556 23.3192 66.6824 22.1363C67.708 22.1332 68.7394 22.1183 69.7634 22.1752C69.0596 23.4117 67.9945 25.7645 67.4357 27.088C66.541 28.8041 65.1488 31.7772 64.4136 33.5071C63.204 31.0276 62.0722 28.4776 60.8911 25.982C60.3227 24.7808 59.7015 23.3202 59.0703 22.1712L60.0681 22.1501Z" fill="black"/>
<path d="M108.627 5.65034C111.335 5.55611 114.702 5.63978 117.435 5.63837C117.433 6.33895 117.401 7.43927 117.492 8.10086C116.859 8.17881 115.244 8.15305 114.537 8.15744C114.535 10.0289 114.543 11.9004 114.563 13.7717C114.611 14.5041 114.535 15.8681 114.542 16.6948L111.585 16.6598C111.491 14.0135 111.575 10.8407 111.579 8.15528C110.586 8.1391 109.591 8.13667 108.598 8.148C108.633 7.32754 108.608 6.47794 108.627 5.65034Z" fill="black"/>
<path d="M31.9892 34.9208C32.909 34.7466 33.7977 35.3446 33.9831 36.2624C34.1684 37.1802 33.5814 38.0764 32.6662 38.2729C32.0641 38.4022 31.4391 38.1977 31.0299 37.7375C30.6207 37.2773 30.4904 36.6325 30.689 36.0495C30.8876 35.4665 31.3843 35.0353 31.9892 34.9208ZM32.6684 37.9288C33.3924 37.7485 33.8354 37.0176 33.6604 36.2921C33.4854 35.5667 32.7581 35.1182 32.0315 35.2878C31.2973 35.4592 30.8431 36.1961 31.0199 36.9292C31.1968 37.6624 31.9368 38.1111 32.6684 37.9288Z" fill="black"/>
<path d="M31.5948 35.6852C31.8605 35.6728 32.1512 35.6462 32.4138 35.6912C32.6992 35.7401 32.9783 35.834 33.1502 36.0796C33.3152 36.5372 32.9977 36.5575 32.8996 36.893C32.883 36.9498 33.0913 37.2903 33.1303 37.3649L33.0847 37.4673L32.7666 37.5646C32.5138 37.4243 32.507 37.2391 32.3147 37.0359L32.183 37.0496C32.1549 37.1861 32.1391 37.3219 32.1249 37.4605C32.0635 37.5149 32.0124 37.5535 31.9285 37.5649C31.7733 37.586 31.7518 37.5708 31.6307 37.482C31.4472 37.0553 31.5822 36.1665 31.5948 35.6852Z" fill="black"/>
<path d="M0 16.604L0.00574551 16.5829C0.127726 16.121 0.105239 15.256 0.132675 14.7558C0.282433 12.0252 1.22727 9.27948 2.69629 7.02162C8.83989 -2.42081 26.4812 -2.16862 32.0925 7.70236C32.9512 9.21286 33.6572 10.7787 33.91 12.5133C34.8667 20.8124 35.523 31.1366 27.2368 36.0794C23.1172 38.5367 19.0929 38.9306 14.4233 38.5009C6.70396 37.7906 0.770806 32.1223 0.157541 24.3204C0.107636 23.6855 0.144823 22.6472 0 22.0863V16.604ZM17.847 38.0474C22.5196 37.828 26.6774 36.5555 29.9288 33.0204C34.3563 28.2065 33.7642 22.1936 33.7222 16.1951C33.6537 6.41963 26.1686 0.299304 16.5881 0.766794L16.498 0.771629C12.2758 0.960296 8.63334 1.92796 5.43724 4.83374C1.4401 8.46779 0.758551 12.5086 0.65222 17.6108C0.630985 19.5574 0.656703 21.5041 0.729349 23.4493C1.10509 31.5936 6.74841 37.2394 14.8504 37.9037C15.8153 37.9829 16.6869 38.1055 17.6751 38.0572C17.7325 38.0544 17.7898 38.0511 17.847 38.0474Z" fill="black"/>
<rect x="3.3125" y="9.23438" width="26" height="25" rx="12.5" fill="black"/>
<path d="M16.4975 0.772035L16.5876 0.767201C26.1681 0.29971 33.6532 6.42004 33.7217 16.1955C33.7637 22.194 34.3558 28.2069 29.9283 33.0208C26.6769 36.5559 22.5191 37.8284 17.8465 38.0478C17.7893 38.0515 17.732 38.0548 17.6746 38.0576C16.6864 38.1059 15.8148 37.9833 14.8499 37.9041C6.74792 37.2399 1.1046 31.594 0.728863 23.4497C0.656217 21.5045 0.630499 19.5578 0.651734 17.6112C0.758065 12.509 1.43961 8.4682 5.43675 4.83415C8.63285 1.92836 12.2753 0.960703 16.4975 0.772035ZM13.9973 22.6656C14.3592 25.2531 11.1394 26.3254 11.5295 28.5221C12.0183 31.2756 14.2777 35.63 17.6974 35.1425C17.8532 35.1192 18.0084 35.0913 18.1627 35.0589C20.6992 34.1633 23.3267 30.0739 22.6524 27.3416C22.2356 25.6533 20.1016 24.989 20.309 22.6548C24.8744 22.6569 23.5199 29.5456 27.6579 29.6956C31.4848 29.8343 33.3674 24.0645 33.2968 20.9922C33.2918 17.1469 32.1335 12.9368 29.3253 10.161C26.0093 6.87206 21.5414 6.111 17.0618 6.12936C16.7572 6.13149 16.4527 6.1432 16.1488 6.16446C14.7144 6.24441 13.4432 6.27122 12.0421 6.58521C9.13533 7.23658 6.71035 8.42983 4.70265 10.6642C2.00865 13.6625 0.906274 17.742 1.10846 21.7174C1.20615 24.0197 2.2271 27.1648 3.98043 28.717C4.78636 29.4407 5.84907 29.8104 6.93 29.743C10.4684 29.5201 9.78908 22.9778 13.7145 22.6844C13.8087 22.6775 13.9029 22.6712 13.9973 22.6656Z" fill="black"/>
<path d="M16.1496 6.16434C16.4535 6.14307 16.758 6.13137 17.0627 6.12923C21.5423 6.11087 26.0101 6.87194 29.3262 10.1609C32.1344 12.9367 33.2926 17.1468 33.2976 20.9921C33.3683 24.0644 31.4857 29.8341 27.6588 29.6954C23.5207 29.5455 24.8752 22.6568 20.3098 22.6547C20.1025 24.9889 22.2365 25.6531 22.6532 27.3414C23.3275 30.0738 20.7001 34.1632 18.1635 35.0587C18.0092 35.0912 17.8541 35.1191 17.6982 35.1424C14.2786 35.6299 12.0192 31.2755 11.5303 28.522C11.1403 26.3252 14.3601 25.253 13.9981 22.6655C13.9038 22.6711 13.8096 22.6774 13.7153 22.6843C9.78993 22.9776 10.4692 29.5199 6.93084 29.7429C5.84991 29.8103 4.78721 29.4406 3.98127 28.7169C2.22795 27.1647 1.207 24.0196 1.10931 21.7173C0.907122 17.7418 2.00949 13.6624 4.7035 10.6641C6.7112 8.4297 9.13618 7.23645 12.0429 6.58508C13.4441 6.27109 14.7152 6.24429 16.1496 6.16434ZM15.0709 17.7361C13.5921 18.1513 14.342 20.1522 15.2524 19.9632C15.7006 19.709 15.9647 19.5969 16.1132 19.0676C16.3306 18.2931 15.8154 17.7601 15.0709 17.7361ZM19.3061 32.1635L19.3295 32.0541C17.4325 32.6188 16.8678 32.6016 14.9925 32.0181C15.6727 32.6392 16.5464 32.8854 17.4615 32.842C18.1637 32.8088 18.7579 32.6022 19.3061 32.1635ZM19.0259 17.7284C17.9465 18.2147 17.953 19.5419 19.0044 19.9299C19.1007 19.9656 19.2028 19.9835 19.3056 19.9824C20.0146 19.6581 20.3741 19.1708 20.0742 18.3393C19.9248 17.9255 19.4557 17.7291 19.0259 17.7284ZM16.7311 23.9848C16.8242 23.7265 16.8807 23.5649 16.7551 23.3012C16.6181 23.0138 16.3268 22.7868 16.0264 22.6882C15.9823 22.6738 15.938 22.6641 15.8922 22.657C15.7912 22.8416 15.796 22.8981 15.8569 23.0989C15.9385 23.368 16.1886 23.7816 16.4444 23.911C16.5302 23.9544 16.6368 23.971 16.7311 23.9848ZM17.9249 23.9791C18.1887 23.682 18.4937 23.3072 18.5782 22.9117L18.5465 22.7656C18.4325 22.7083 18.3612 22.7043 18.2356 22.7136C17.9292 22.8817 17.6692 23.0713 17.5568 23.4195C17.53 23.5025 17.5372 23.5953 17.5494 23.6806C17.6602 23.8621 17.7104 23.9211 17.9249 23.9791Z" fill="white"/>
<path d="M5.41797 8.16394C9.87409 1.29935 23.0601 0.992726 28.2694 7.194C28.4375 7.39413 28.6026 7.61036 28.762 7.81844L28.6326 7.92147C27.1918 6.33255 25.2635 4.97461 23.2186 4.33786C17.9094 2.6846 11.0244 3.00004 6.75473 6.94223C6.34085 7.32434 5.85606 7.809 5.55247 8.25948L5.41797 8.16394Z" fill="white"/>
<path d="M4.96875 29.9941C5.35863 30.2495 5.74183 30.7758 6.07318 31.1162C6.60501 31.6627 7.18047 32.1837 7.79613 32.6343C8.56293 33.1955 9.39019 33.7164 10.2311 34.159C10.8239 34.471 11.501 34.7266 12.0393 35.1247C11.3347 35.1063 10.1041 34.6533 9.44796 34.3621C7.57813 33.5323 5.71887 31.9387 4.96875 29.9941Z" fill="white"/>
<path d="M29.3433 30.002C29.346 30.01 29.3491 30.018 29.3514 30.0262C29.4085 30.2332 28.888 31.0221 28.7582 31.2189C27.4009 33.2767 24.9399 34.595 22.5742 35.0831C22.5808 34.8951 23.5451 34.5142 23.7428 34.4121C26.1594 33.1634 27.4543 31.9196 29.3433 30.002Z" fill="white"/>
<path d="M25.163 29.0605C25.1756 29.1284 25.1682 29.1949 25.1425 29.2591C24.7823 30.16 23.2888 30.955 22.4471 31.2966L22.4414 31.2505C22.5518 31.0463 24.7101 29.5212 25.163 29.0605Z" fill="black"/>
<path d="M9.16016 28.9883C9.59293 29.2873 9.98823 29.7134 10.4051 30.0457C10.9536 30.4831 11.5461 30.8599 12.0993 31.2921C11.9494 31.2855 11.8314 31.2459 11.6955 31.188C10.7187 30.7708 9.57345 30.0151 9.16016 28.9883Z" fill="black"/>
<path d="M26.6312 29.7031L26.6978 29.7598C26.7548 29.9064 26.7642 30.0344 26.7685 30.1908L27.1171 30.4845L27.1869 30.4632L27.2114 30.5092C27.1054 30.4742 27.0529 30.4416 26.9454 30.4929C26.7103 30.6052 26.5963 30.8097 26.5128 31.0442L26.5038 31.07C26.4182 30.9804 26.4472 30.9354 26.4435 30.8135C26.4325 30.4503 26.1009 30.6055 25.9034 30.4081C25.8989 30.4037 25.8949 30.3989 25.8906 30.3943L25.9385 30.4472C26.0757 30.2784 26.193 30.3674 26.3619 30.2765C26.5443 30.1784 26.5743 29.8894 26.6312 29.7031Z" fill="black"/>
<path d="M7.81828 29.7051C7.9618 29.8712 7.94239 29.9629 7.95654 30.174C8.10633 30.339 8.30667 30.3695 8.51551 30.4409L8.53081 30.5L8.53135 30.4519L8.46064 30.4245L8.39424 30.5343L8.08934 30.5885C7.91394 30.7637 7.94879 30.959 7.92675 31.2007C7.73227 30.7213 7.67503 30.6883 7.23828 30.4227C7.39899 30.3862 7.52687 30.3428 7.67005 30.2608C7.77359 30.0909 7.78977 29.898 7.81828 29.7051Z" fill="black"/>
<path d="M17.8733 4.55442C18.029 4.47501 18.2195 4.53569 18.3007 4.69052C18.3818 4.84534 18.3233 5.03663 18.1694 5.11952C18.0683 5.17397 17.9458 5.16988 17.8486 5.10882C17.7513 5.04776 17.6944 4.93914 17.6995 4.82442C17.7047 4.7097 17.771 4.60658 17.8733 4.55442Z" fill="black"/>
<path d="M16.2883 4.56387C16.4395 4.47853 16.6314 4.53272 16.7157 4.68462C16.8001 4.83651 16.7446 5.02804 16.5922 5.11139C16.4412 5.19397 16.2519 5.13915 16.1683 4.98865C16.0848 4.83816 16.1384 4.64842 16.2883 4.56387Z" fill="black"/>
<path d="M23.2843 28.5072C23.4226 28.4399 23.5895 28.4866 23.6727 28.616C23.7561 28.7454 23.7296 28.9166 23.6111 29.0147C23.5208 29.0896 23.3955 29.1058 23.2891 29.0563C23.1827 29.0069 23.1143 28.9006 23.1133 28.7833C23.1122 28.6659 23.1788 28.5585 23.2843 28.5072Z" fill="black"/>
<path d="M28.7583 7.81836C29.0103 8.16568 29.2261 8.46573 29.3662 8.88094L28.6289 7.92139L28.7583 7.81836Z" fill="black"/>
<path d="M5.41644 8.16406L5.55094 8.25961C5.29796 8.60281 5.21903 8.7022 4.89453 8.97454C5.0716 8.66646 5.19465 8.44753 5.41644 8.16406Z" fill="black"/>
<path d="M128.161 5.18359C128.487 5.58949 129.347 6.25411 129.78 6.60802L133.158 9.39165C133.765 9.88866 134.844 10.6908 135.303 11.2517C135.32 9.46967 135.347 7.41294 135.332 5.64484C136.24 5.62816 137.147 5.62921 138.054 5.64796V17.0251C137.673 16.8127 136.683 15.929 136.265 15.6093C134.54 14.2923 132.6 12.3959 130.86 11.1734C130.994 12.3524 130.905 15.3493 130.92 16.6912C130.006 16.6399 129.054 16.6491 128.137 16.6444C128.099 14.3626 128.088 12.0804 128.105 9.79831C128.102 8.42091 128.049 6.51788 128.161 5.18359Z" fill="black"/>
</g>
<defs>
<clipPath id="clip0_2265_5992">
<rect width="138.057" height="38.838" fill="white"/>
</clipPath>
</defs>
</svg>
