<svg preserveAspectRatio="none" overflow="visible" style="display: block;" width="90" height="90" viewBox="0 0 90 90" fill="none" xmlns="http://www.w3.org/2000/svg">
<g id="Frame 1984078161">
<path id="explore" d="M30.6108 55.3892L51.5832 48.5832L58.3892 27.6108L37.4168 34.4168L30.6108 55.3892ZM44.4838 45.5282C43.3601 45.5282 42.4107 45.1349 41.6355 44.3483C40.8597 43.5616 40.4718 42.6068 40.4718 41.4838C40.4718 40.3601 40.8651 39.4107 41.6517 38.6355C42.4384 37.8597 43.3932 37.4718 44.5163 37.4718C45.6399 37.4718 46.5893 37.8651 47.3645 38.6517C48.1403 39.4384 48.5282 40.3932 48.5282 41.5163C48.5282 42.6399 48.1349 43.5893 47.3483 44.3645C46.5616 45.1403 45.6068 45.5282 44.4838 45.5282ZM44.5117 74C40.0177 74 35.7924 73.1472 31.8358 71.4415C27.8799 69.7359 24.4385 67.4212 21.5117 64.4974C18.5849 61.5736 16.268 58.1352 14.5612 54.1822C12.8537 50.2299 12 46.0064 12 41.5117C12 37.0177 12.8528 32.7924 14.5585 28.8358C16.2641 24.8799 18.5788 21.4385 21.5026 18.5117C24.4264 15.5849 27.8648 13.268 31.8178 11.5612C35.7701 9.85373 39.9936 9 44.4883 9C48.9823 9 53.2076 9.85283 57.1642 11.5585C61.1201 13.2641 64.5615 15.5788 67.4883 18.5026C70.4151 21.4264 72.732 24.8648 74.4388 28.8178C76.1463 32.7701 77 36.9936 77 41.4883C77 45.9823 76.1472 50.2076 74.4415 54.1642C72.7359 58.1201 70.4212 61.5615 67.4974 64.4883C64.5736 67.4151 61.1352 69.732 57.1822 71.4388C53.2299 73.1463 49.0064 74 44.5117 74ZM44.5 70.3889C52.551 70.3889 59.3784 67.5867 64.9822 61.9822C70.5867 56.3784 73.3889 49.551 73.3889 41.5C73.3889 33.449 70.5867 26.6216 64.9822 21.0178C59.3784 15.4133 52.551 12.6111 44.5 12.6111C36.449 12.6111 29.6216 15.4133 24.0178 21.0178C18.4133 26.6216 15.6111 33.449 15.6111 41.5C15.6111 49.551 18.4133 56.3784 24.0178 61.9822C29.6216 67.5867 36.449 70.3889 44.5 70.3889Z" fill="white"/>
</g>
</svg>
